<?xml version="1.0" encoding="iso-8859-1"?>
<!-- Generator: Adobe Illustrator 18.0.0, SVG Export Plug-In . SVG Version: 6.00 Build 0)  -->
<!DOCTYPE svg PUBLIC "-//W3C//DTD SVG 1.1//EN" "http://www.w3.org/Graphics/SVG/1.1/DTD/svg11.dtd">
<svg version="1.1" id="Capa_1" xmlns="http://www.w3.org/2000/svg" xmlns:xlink="http://www.w3.org/1999/xlink" x="0px" y="0px"
	 viewBox="0 0 512 512" style="enable-background:new 0 0 512 512;" xml:space="preserve">
<g>
	<path d="M112,0C94.327,0,80,14.328,80,32v448c0,17.672,14.327,32,32,32c17.673,0,32-14.328,32-32V32C144,14.328,129.673,0,112,0z"
		/>
	<path d="M370.43,128l59.461-104.063c2.828-4.953,2.813-11.031-0.055-15.969C426.977,3.031,421.704,0,416.001,0h-208
		C190.352,0,176,14.359,176,32v192c0,17.641,14.352,32,32.001,32h208c5.703,0,10.977-3.031,13.836-7.969
		c2.867-4.938,2.883-11.016,0.055-15.969L370.43,128z"/>
</g>
<g>
</g>
<g>
</g>
<g>
</g>
<g>
</g>
<g>
</g>
<g>
</g>
<g>
</g>
<g>
</g>
<g>
</g>
<g>
</g>
<g>
</g>
<g>
</g>
<g>
</g>
<g>
</g>
<g>
</g>
</svg>
